<?xml version="1.0" standalone="no"?><!DOCTYPE svg PUBLIC "-//W3C//DTD SVG 1.1//EN" "http://www.w3.org/Graphics/SVG/1.1/DTD/svg11.dtd"><svg t="1732249167596" class="icon" viewBox="0 0 1024 1024" version="1.1" xmlns="http://www.w3.org/2000/svg" p-id="7176" xmlns:xlink="http://www.w3.org/1999/xlink" width="200" height="200"><path d="M85.333333 213.333333h853.333334a42.666667 42.666667 0 0 1 42.666666 42.666667v384a42.666667 42.666667 0 0 1-42.666666 42.666667v85.333333a42.666667 42.666667 0 0 1-42.666667 42.666667h-316.330667l-42.666666-42.666667h-50.005334l-42.666666 42.666667H128a42.666667 42.666667 0 0 1-42.666667-42.666667v-85.333333a42.666667 42.666667 0 0 1-42.666666-42.666667V256a42.666667 42.666667 0 0 1 42.666666-42.666667z m85.333334 469.333334v42.666666h238.336l42.666666-42.666666H170.666667z m401.664 0l42.666666 42.666666H853.333333v-42.666666h-281.002666zM298.666667 384H213.333333v128h85.333334V384z m85.333333 0v128h85.333333V384H384z m256 0h-85.333333v128h85.333333V384z m85.333333 0v128h85.333334V384h-85.333334z" fill="#000000" p-id="7177"></path></svg>